<?xml version="1.0" standalone="no"?><!DOCTYPE svg PUBLIC "-//W3C//DTD SVG 1.1//EN" "http://www.w3.org/Graphics/SVG/1.1/DTD/svg11.dtd"><svg t="1652233674838" class="icon" viewBox="0 0 1024 1024" version="1.1" xmlns="http://www.w3.org/2000/svg" p-id="16192" xmlns:xlink="http://www.w3.org/1999/xlink" width="200" height="200"><defs><style type="text/css">@font-face { font-family: feedback-iconfont; src: url("//at.alicdn.com/t/font_1031158_u69w8yhxdu.woff2?t=1630033759944") format("woff2"), url("//at.alicdn.com/t/font_1031158_u69w8yhxdu.woff?t=1630033759944") format("woff"), url("//at.alicdn.com/t/font_1031158_u69w8yhxdu.ttf?t=1630033759944") format("truetype"); }
</style></defs><path d="M971.52 851.52H130.56V96a9.28 9.28 0 0 0-9.6-9.6H52.48a9.6 9.6 0 0 0-9.92 9.6v832a9.6 9.6 0 0 0 9.92 9.6h919.04a9.6 9.6 0 0 0 9.92-9.6v-66.88a9.6 9.6 0 0 0-9.92-9.6zM218.56 773.76h655.36a9.6 9.6 0 0 0 9.6-9.6V235.52a9.6 9.6 0 0 0-16.64-6.72l-256 256-153.28-150.08a9.92 9.92 0 0 0-14.08 0L211.84 563.2a9.28 9.28 0 0 0-2.88 6.72v194.24a9.6 9.6 0 0 0 9.6 9.6z" p-id="16193"></path></svg>